<svg xmlns="http://www.w3.org/2000/svg" xmlns:xlink="http://www.w3.org/1999/xlink" width="512" zoomAndPan="magnify" viewBox="0 0 384 383.999986" height="512" preserveAspectRatio="xMidYMid meet" version="1.0"><path fill="#6fe999" d="M 132.019531 361.765625 C -35.75 303.246094 -24.921875 59.136719 147.070312 16.703125 C 295.71875 -19.96875 419.289062 130.484375 353.394531 269.300781 C 326.746094 325.476562 267.265625 370.558594 200.984375 369.636719 C 176.984375 369.292969 157.554688 370.675781 132.019531 361.765625 Z M 132.019531 361.765625 " fill-opacity="1" fill-rule="nonzero"/><path fill="#487d5f" d="M 341.53125 191.347656 C 341.53125 193.804688 341.46875 196.261719 341.347656 198.714844 C 341.226562 201.167969 341.046875 203.617188 340.804688 206.0625 C 340.566406 208.507812 340.265625 210.949219 339.90625 213.378906 C 339.542969 215.808594 339.125 218.230469 338.644531 220.640625 C 338.164062 223.046875 337.628906 225.445312 337.03125 227.828125 C 336.433594 230.210938 335.777344 232.582031 335.0625 234.933594 C 334.351562 237.28125 333.582031 239.617188 332.753906 241.929688 C 331.925781 244.242188 331.039062 246.535156 330.101562 248.804688 C 329.160156 251.074219 328.164062 253.320312 327.113281 255.542969 C 326.0625 257.761719 324.960938 259.957031 323.800781 262.125 C 322.640625 264.292969 321.429688 266.429688 320.167969 268.535156 C 318.90625 270.644531 317.589844 272.71875 316.226562 274.761719 C 314.859375 276.804688 313.445312 278.8125 311.980469 280.789062 C 310.519531 282.761719 309.007812 284.699219 307.449219 286.597656 C 305.890625 288.496094 304.285156 290.355469 302.636719 292.175781 C 300.984375 294 299.289062 295.777344 297.554688 297.515625 C 295.816406 299.253906 294.035156 300.945312 292.214844 302.597656 C 290.394531 304.246094 288.535156 305.851562 286.636719 307.410156 C 284.738281 308.96875 282.800781 310.480469 280.828125 311.945312 C 278.851562 313.40625 276.84375 314.820312 274.800781 316.1875 C 272.757812 317.550781 270.683594 318.867188 268.574219 320.128906 C 266.46875 321.394531 264.328125 322.605469 262.164062 323.761719 C 259.996094 324.921875 257.800781 326.023438 255.582031 327.074219 C 253.359375 328.125 251.113281 329.121094 248.84375 330.0625 C 246.574219 331.003906 244.28125 331.886719 241.96875 332.714844 C 239.652344 333.542969 237.320312 334.3125 234.96875 335.027344 C 232.617188 335.738281 230.25 336.394531 227.867188 336.992188 C 225.484375 337.589844 223.085938 338.125 220.675781 338.605469 C 218.265625 339.085938 215.847656 339.503906 213.417969 339.867188 C 210.984375 340.226562 208.546875 340.527344 206.101562 340.769531 C 203.65625 341.007812 201.207031 341.191406 198.753906 341.308594 C 196.296875 341.429688 193.84375 341.492188 191.386719 341.492188 C 188.929688 341.492188 186.472656 341.429688 184.019531 341.308594 C 181.5625 341.191406 179.113281 341.007812 176.667969 340.769531 C 174.222656 340.527344 171.785156 340.226562 169.355469 339.867188 C 166.925781 339.503906 164.503906 339.085938 162.09375 338.605469 C 159.683594 338.125 157.289062 337.589844 154.902344 336.992188 C 152.519531 336.394531 150.152344 335.738281 147.800781 335.027344 C 145.449219 334.3125 143.117188 333.542969 140.804688 332.714844 C 138.488281 331.886719 136.199219 331.003906 133.929688 330.0625 C 131.65625 329.121094 129.410156 328.125 127.191406 327.074219 C 124.96875 326.023438 122.773438 324.921875 120.609375 323.761719 C 118.441406 322.605469 116.304688 321.394531 114.195312 320.128906 C 112.089844 318.867188 110.011719 317.550781 107.96875 316.1875 C 105.925781 314.820312 103.917969 313.40625 101.945312 311.945312 C 99.972656 310.480469 98.035156 308.96875 96.136719 307.410156 C 94.234375 305.851562 92.375 304.246094 90.554688 302.597656 C 88.734375 300.945312 86.957031 299.253906 85.21875 297.515625 C 83.480469 295.777344 81.785156 294 80.136719 292.175781 C 78.484375 290.355469 76.882812 288.496094 75.324219 286.597656 C 73.765625 284.699219 72.253906 282.761719 70.789062 280.789062 C 69.324219 278.8125 67.910156 276.804688 66.546875 274.761719 C 65.179688 272.71875 63.867188 270.644531 62.601562 268.535156 C 61.339844 266.429688 60.128906 264.292969 58.96875 262.125 C 57.8125 259.957031 56.707031 257.761719 55.65625 255.542969 C 54.605469 253.320312 53.609375 251.074219 52.671875 248.804688 C 51.730469 246.535156 50.847656 244.242188 50.019531 241.929688 C 49.191406 239.617188 48.421875 237.28125 47.707031 234.933594 C 46.992188 232.582031 46.339844 230.210938 45.742188 227.828125 C 45.144531 225.445312 44.605469 223.046875 44.125 220.640625 C 43.648438 218.230469 43.226562 215.808594 42.867188 213.378906 C 42.507812 210.949219 42.207031 208.507812 41.964844 206.0625 C 41.722656 203.617188 41.542969 201.167969 41.421875 198.714844 C 41.300781 196.261719 41.242188 193.804688 41.242188 191.347656 C 41.242188 188.890625 41.300781 186.433594 41.421875 183.980469 C 41.542969 181.527344 41.722656 179.074219 41.964844 176.628906 C 42.207031 174.183594 42.507812 171.746094 42.867188 169.316406 C 43.226562 166.886719 43.648438 164.464844 44.125 162.054688 C 44.605469 159.644531 45.144531 157.25 45.742188 154.863281 C 46.339844 152.480469 46.992188 150.113281 47.707031 147.761719 C 48.421875 145.410156 49.191406 143.078125 50.019531 140.765625 C 50.847656 138.453125 51.730469 136.160156 52.671875 133.890625 C 53.609375 131.621094 54.605469 129.375 55.65625 127.152344 C 56.707031 124.929688 57.8125 122.738281 58.96875 120.570312 C 60.128906 118.402344 61.339844 116.265625 62.601562 114.15625 C 63.867188 112.050781 65.179688 109.976562 66.546875 107.933594 C 67.910156 105.886719 69.324219 103.878906 70.789062 101.90625 C 72.253906 99.933594 73.765625 97.996094 75.324219 96.097656 C 76.882812 94.199219 78.484375 92.335938 80.136719 90.515625 C 81.785156 88.695312 83.480469 86.917969 85.21875 85.179688 C 86.957031 83.441406 88.734375 81.746094 90.554688 80.097656 C 92.375 78.449219 94.234375 76.84375 96.136719 75.285156 C 98.035156 73.726562 99.972656 72.214844 101.945312 70.75 C 103.917969 69.285156 105.925781 67.871094 107.96875 66.507812 C 110.011719 65.140625 112.089844 63.828125 114.195312 62.5625 C 116.304688 61.300781 118.441406 60.089844 120.609375 58.933594 C 122.773438 57.773438 124.96875 56.667969 127.191406 55.617188 C 129.410156 54.566406 131.65625 53.574219 133.929688 52.632812 C 136.199219 51.691406 138.488281 50.808594 140.804688 49.980469 C 143.117188 49.152344 145.449219 48.382812 147.800781 47.667969 C 150.152344 46.953125 152.519531 46.300781 154.902344 45.703125 C 157.289062 45.105469 159.683594 44.566406 162.09375 44.089844 C 164.503906 43.609375 166.925781 43.1875 169.355469 42.828125 C 171.785156 42.46875 174.222656 42.167969 176.667969 41.925781 C 179.113281 41.683594 181.5625 41.503906 184.019531 41.382812 C 186.472656 41.261719 188.929688 41.203125 191.386719 41.203125 C 193.84375 41.203125 196.296875 41.261719 198.753906 41.382812 C 201.207031 41.503906 203.65625 41.683594 206.101562 41.925781 C 208.546875 42.167969 210.984375 42.46875 213.417969 42.828125 C 215.847656 43.1875 218.265625 43.609375 220.675781 44.089844 C 223.085938 44.566406 225.484375 45.105469 227.867188 45.703125 C 230.25 46.300781 232.617188 46.953125 234.96875 47.667969 C 237.320312 48.382812 239.652344 49.152344 241.96875 49.980469 C 244.28125 50.808594 246.574219 51.691406 248.84375 52.632812 C 251.113281 53.574219 253.359375 54.566406 255.582031 55.617188 C 257.800781 56.667969 259.996094 57.773438 262.164062 58.933594 C 264.328125 60.089844 266.46875 61.300781 268.574219 62.5625 C 270.683594 63.828125 272.757812 65.140625 274.800781 66.507812 C 276.84375 67.871094 278.851562 69.285156 280.828125 70.75 C 282.800781 72.214844 284.738281 73.726562 286.636719 75.285156 C 288.535156 76.84375 290.394531 78.449219 292.214844 80.097656 C 294.035156 81.746094 295.816406 83.441406 297.554688 85.179688 C 299.289062 86.917969 300.984375 88.695312 302.636719 90.515625 C 304.285156 92.335938 305.890625 94.199219 307.449219 96.097656 C 309.007812 97.996094 310.519531 99.933594 311.980469 101.90625 C 313.445312 103.878906 314.859375 105.886719 316.226562 107.933594 C 317.589844 109.976562 318.90625 112.050781 320.167969 114.15625 C 321.429688 116.265625 322.640625 118.402344 323.800781 120.570312 C 324.960938 122.738281 326.0625 124.929688 327.113281 127.152344 C 328.164062 129.375 329.160156 131.621094 330.101562 133.890625 C 331.039062 136.160156 331.925781 138.453125 332.753906 140.765625 C 333.582031 143.078125 334.351562 145.410156 335.0625 147.761719 C 335.777344 150.113281 336.433594 152.480469 337.03125 154.863281 C 337.628906 157.25 338.164062 159.644531 338.644531 162.054688 C 339.125 164.464844 339.542969 166.886719 339.90625 169.316406 C 340.265625 171.746094 340.566406 174.183594 340.804688 176.628906 C 341.046875 179.074219 341.226562 181.527344 341.347656 183.980469 C 341.46875 186.433594 341.53125 188.890625 341.53125 191.347656 Z M 341.53125 191.347656 " fill-opacity="1" fill-rule="nonzero"/><path fill="#6fe999" d="M 164.851562 144.960938 L 217.996094 144.960938 C 218.222656 144.960938 218.4375 145.003906 218.644531 145.089844 C 218.851562 145.175781 219.03125 145.296875 219.191406 145.453125 C 219.351562 145.613281 219.472656 145.796875 219.558594 146.003906 C 219.644531 146.210938 219.6875 146.425781 219.6875 146.648438 L 219.6875 152.871094 C 219.6875 153.09375 219.644531 153.308594 219.558594 153.515625 C 219.472656 153.722656 219.351562 153.90625 219.191406 154.066406 C 219.03125 154.222656 218.851562 154.34375 218.644531 154.429688 C 218.4375 154.515625 218.222656 154.558594 217.996094 154.558594 L 164.851562 154.558594 C 164.628906 154.558594 164.410156 154.515625 164.203125 154.429688 C 163.996094 154.34375 163.816406 154.222656 163.65625 154.066406 C 163.496094 153.90625 163.375 153.722656 163.289062 153.515625 C 163.203125 153.308594 163.160156 153.09375 163.160156 152.871094 L 163.160156 146.648438 C 163.160156 146.425781 163.203125 146.210938 163.289062 146.003906 C 163.375 145.796875 163.496094 145.613281 163.65625 145.453125 C 163.816406 145.296875 163.996094 145.175781 164.203125 145.089844 C 164.410156 145.003906 164.628906 144.960938 164.851562 144.960938 Z M 164.851562 144.960938 " fill-opacity="1" fill-rule="nonzero"/><path fill="#6fe999" d="M 171.972656 183.367188 L 210.910156 183.503906 C 211.175781 183.503906 211.4375 183.53125 211.695312 183.585938 C 211.957031 183.636719 212.207031 183.714844 212.453125 183.816406 C 212.695312 183.917969 212.925781 184.042969 213.148438 184.191406 C 213.367188 184.339844 213.570312 184.507812 213.757812 184.695312 C 213.941406 184.882812 214.109375 185.085938 214.253906 185.308594 C 214.402344 185.527344 214.523438 185.761719 214.625 186.007812 C 214.726562 186.25 214.800781 186.503906 214.851562 186.765625 C 214.902344 187.023438 214.929688 187.285156 214.925781 187.550781 L 214.921875 189.085938 C 214.921875 189.351562 214.894531 189.613281 214.839844 189.875 C 214.789062 190.132812 214.710938 190.382812 214.609375 190.628906 C 214.507812 190.871094 214.382812 191.105469 214.234375 191.324219 C 214.085938 191.542969 213.917969 191.746094 213.730469 191.933594 C 213.542969 192.121094 213.339844 192.285156 213.117188 192.433594 C 212.898438 192.578125 212.664062 192.703125 212.421875 192.804688 C 212.175781 192.902344 211.921875 192.980469 211.664062 193.03125 C 211.402344 193.082031 211.140625 193.105469 210.875 193.105469 L 171.9375 192.96875 C 171.671875 192.96875 171.410156 192.941406 171.152344 192.886719 C 170.894531 192.835938 170.640625 192.757812 170.398438 192.65625 C 170.152344 192.554688 169.921875 192.429688 169.699219 192.28125 C 169.480469 192.132812 169.277344 191.964844 169.089844 191.777344 C 168.90625 191.589844 168.738281 191.386719 168.59375 191.164062 C 168.445312 190.945312 168.324219 190.710938 168.222656 190.464844 C 168.121094 190.222656 168.046875 189.96875 167.996094 189.710938 C 167.945312 189.449219 167.917969 189.1875 167.921875 188.921875 L 167.925781 187.386719 C 167.925781 187.121094 167.953125 186.859375 168.007812 186.601562 C 168.058594 186.339844 168.136719 186.089844 168.238281 185.84375 C 168.339844 185.601562 168.464844 185.367188 168.613281 185.148438 C 168.761719 184.929688 168.929688 184.726562 169.117188 184.539062 C 169.304688 184.351562 169.507812 184.1875 169.730469 184.039062 C 169.949219 183.894531 170.183594 183.769531 170.429688 183.671875 C 170.671875 183.570312 170.925781 183.496094 171.183594 183.445312 C 171.445312 183.394531 171.707031 183.367188 171.972656 183.367188 Z M 171.972656 183.367188 " fill-opacity="1" fill-rule="nonzero"/><path fill="#6fe999" d="M 165.742188 224.59375 L 217.429688 224.683594 C 217.859375 224.6875 218.269531 224.769531 218.664062 224.933594 C 219.058594 225.097656 219.40625 225.332031 219.710938 225.632812 C 220.011719 225.9375 220.242188 226.285156 220.40625 226.679688 C 220.570312 227.078125 220.652344 227.488281 220.648438 227.917969 L 220.644531 231.988281 C 220.640625 232.414062 220.558594 232.824219 220.394531 233.21875 C 220.230469 233.617188 219.996094 233.964844 219.695312 234.265625 C 219.390625 234.566406 219.042969 234.800781 218.644531 234.964844 C 218.25 235.125 217.839844 235.207031 217.410156 235.207031 L 165.726562 235.117188 C 165.296875 235.117188 164.886719 235.03125 164.492188 234.867188 C 164.097656 234.703125 163.746094 234.472656 163.445312 234.167969 C 163.144531 233.863281 162.910156 233.515625 162.75 233.121094 C 162.585938 232.722656 162.503906 232.3125 162.503906 231.886719 L 162.511719 227.816406 C 162.511719 227.386719 162.597656 226.976562 162.761719 226.582031 C 162.925781 226.1875 163.15625 225.835938 163.460938 225.535156 C 163.765625 225.234375 164.113281 225 164.507812 224.839844 C 164.902344 224.675781 165.316406 224.59375 165.742188 224.59375 Z M 165.742188 224.59375 " fill-opacity="1" fill-rule="nonzero"/></svg>