<svg xmlns="http://www.w3.org/2000/svg" xmlns:xlink="http://www.w3.org/1999/xlink" version="1.1" width="1000" height="1000" viewBox="0 0 1000 1000" xml:space="preserve">
<desc>Created with Fabric.js 3.5.0</desc>
<defs>
</defs>
<rect x="0" y="0" width="100%" height="100%" fill="#ffffff"/>
<g transform="matrix(11.3633 0 0 11.3633 500 500)" id="surface1">
<path style="stroke: none; stroke-width: 1; stroke-dasharray: none; stroke-linecap: butt; stroke-dashoffset: 0; stroke-linejoin: miter; stroke-miterlimit: 4; is-custom-font: none; font-file-url: none; fill: rgb(186,186,186); fill-rule: nonzero; opacity: 1;" transform=" translate(-39.9494, -39.6628)" d="M 27.503906 75.367188 C -7.449219 63.175781 -5.191406 12.320312 30.640625 3.480469 C 61.609375 -4.160156 87.351562 27.183594 73.625 56.105469 C 68.070312 67.808594 55.679688 77.199219 41.871094 77.007812 C 36.871094 76.9375 32.824219 77.222656 27.503906 75.367188 Z M 27.503906 75.367188" stroke-linecap="round"/>
</g>
<g transform="matrix(11.3633 0 0 11.3633 499.1334 502.3021)" id="surface1">
<path style="stroke: none; stroke-width: 1; stroke-dasharray: none; stroke-linecap: butt; stroke-dashoffset: 0; stroke-linejoin: miter; stroke-miterlimit: 4; is-custom-font: none; font-file-url: none; fill: rgb(104,104,104); fill-rule: nonzero; opacity: 1;" transform=" translate(-39.873, -39.8652)" d="M 71.152344 39.863281 C 71.152344 48.054688 67.78125 56.191406 61.992188 61.980469 C 56.199219 67.773438 48.0625 71.144531 39.871094 71.144531 C 31.683594 71.144531 23.542969 67.773438 17.753906 61.980469 C 11.964844 56.191406 8.59375 48.054688 8.59375 39.863281 C 8.59375 31.675781 11.964844 23.535156 17.753906 17.746094 C 23.542969 11.957031 31.683594 8.585938 39.871094 8.585938 C 48.0625 8.585938 56.199219 11.957031 61.992188 17.746094 C 67.78125 23.535156 71.152344 31.675781 71.152344 39.863281 Z M 71.152344 39.863281" stroke-linecap="round"/>
</g>
<g transform="matrix(1 0 0 1 500.5872 535.3081)" style="" id="920091">
		
<path xml:space="preserve" font-family="Lato" font-size="688" font-weight="bold" style="stroke: none; stroke-width: 0; stroke-dasharray: none; stroke-linecap: butt; stroke-dashoffset: 0; stroke-linejoin: miter; stroke-miterlimit: 4; is-custom-font: none; font-file-url: none; fill: rgb(0,0,0); fill-rule: nonzero; opacity: 1; white-space: pre;" d="M-229.45 216.13L-63.98-39.81L-222.57-281.30L-130.38-281.30Q-120.74-281.30-116.44-278.72Q-112.14-276.14-108.70-270.29L-108.70-270.29L4.47-87.62Q6.19-92.10 8.26-96.40Q10.32-100.70 13.07-105.17L13.07-105.17L116.62-268.57Q124.18-281.30 136.22-281.30L136.22-281.30L224.98-281.30L64.67-43.59L229.45 216.13L136.91 216.13Q127.62 216.13 121.95 211.31Q116.27 206.50 112.49 200.30L112.49 200.30L-2.75 9.73Q-4.13 13.86-5.85 17.47Q-7.57 21.08-9.29 24.18L-9.29 24.18L-119.71 200.30Q-123.50 206.15-129 211.14Q-134.50 216.13-142.76 216.13L-142.76 216.13L-229.45 216.13Z"/></g>
<g transform="matrix(11.3633 0 0 11.3633 499.2299 403.8339)" id="surface1">
<path style="stroke: none; stroke-width: 1; stroke-dasharray: none; stroke-linecap: butt; stroke-dashoffset: 0; stroke-linejoin: miter; stroke-miterlimit: 4; is-custom-font: none; font-file-url: none; fill: rgb(186,186,186); fill-rule: nonzero; opacity: 1;" transform=" translate(-39.8809, -31.1992)" d="M 34.34375 30.199219 L 45.414062 30.199219 C 45.609375 30.199219 45.769531 30.355469 45.769531 30.550781 L 45.769531 31.847656 C 45.769531 32.042969 45.609375 32.199219 45.414062 32.199219 L 34.34375 32.199219 C 34.148438 32.199219 33.992188 32.042969 33.992188 31.847656 L 33.992188 30.550781 C 33.992188 30.355469 34.148438 30.199219 34.34375 30.199219 Z M 34.34375 30.199219" stroke-linecap="round"/>
</g>
<g transform="matrix(11.3633 0 0 11.3633 499.2302 494.9429)" id="surface1">
<path style="stroke: none; stroke-width: 1; stroke-dasharray: none; stroke-linecap: butt; stroke-dashoffset: 0; stroke-linejoin: miter; stroke-miterlimit: 4; is-custom-font: none; font-file-url: none; fill: rgb(186,186,186); fill-rule: nonzero; opacity: 1;" transform=" translate(-39.8808, -39.2168)" d="M 35.828125 38.203125 L 43.941406 38.230469 C 44.40625 38.230469 44.777344 38.609375 44.777344 39.074219 L 44.777344 39.394531 C 44.773438 39.859375 44.398438 40.230469 43.933594 40.230469 L 35.820312 40.203125 C 35.355469 40.199219 34.980469 39.824219 34.984375 39.359375 L 34.984375 39.039062 C 34.984375 38.574219 35.363281 38.199219 35.828125 38.203125 Z M 35.828125 38.203125" stroke-linecap="round"/>
</g>
<g transform="matrix(11.3633 0 0 11.3633 499.5849 593.553)" id="surface1">
<path style="stroke: none; stroke-width: 1; stroke-dasharray: none; stroke-linecap: butt; stroke-dashoffset: 0; stroke-linejoin: miter; stroke-miterlimit: 4; is-custom-font: none; font-file-url: none; fill: rgb(186,186,186); fill-rule: nonzero; opacity: 1;" transform=" translate(-39.9121, -47.8945)" d="M 34.53125 46.789062 L 45.296875 46.808594 C 45.671875 46.808594 45.96875 47.109375 45.96875 47.484375 L 45.96875 48.332031 C 45.964844 48.703125 45.667969 49.003906 45.292969 49 L 34.527344 48.984375 C 34.152344 48.980469 33.855469 48.683594 33.855469 48.308594 L 33.855469 47.460938 C 33.855469 47.089844 34.15625 46.789062 34.53125 46.789062 Z M 34.53125 46.789062" stroke-linecap="round"/>
</g>
</svg>